<?xml version="1.0" standalone="no"?>
<!DOCTYPE svg PUBLIC "-//W3C//DTD SVG 20010904//EN"
 "http://www.w3.org/TR/2001/REC-SVG-20010904/DTD/svg10.dtd">
<svg version="1.0" xmlns="http://www.w3.org/2000/svg"
 width="600.000000pt" height="372.000000pt" viewBox="0 0 600.000000 372.000000"
 preserveAspectRatio="xMidYMid meet">

<g transform="translate(0.000000,372.000000) scale(0.100000,-0.100000)"
fill="#000000" stroke="none">
<path d="M828 3483 c-16 -4 -18 -21 -18 -185 l0 -181 168 6 c131 4 177 9 213
24 58 23 101 58 123 100 22 43 20 78 -5 131 -29 58 -90 87 -214 102 -90 10
-234 12 -267 3z m310 -87 c42 -22 68 -77 55 -120 -5 -18 -25 -42 -49 -59 -36
-25 -50 -29 -125 -30 l-84 -2 -3 104 c-1 58 0 111 3 119 8 21 158 12 203 -12z"/>
<path d="M2083 3484 c-10 -4 -13 -51 -13 -185 l0 -179 55 0 55 0 0 59 c0 69 3
71 92 71 126 0 218 52 218 124 0 39 -40 82 -89 96 -39 11 -300 23 -318 14z
m231 -68 c38 -16 52 -45 36 -76 -13 -25 -41 -32 -109 -28 l-53 3 -2 44 c-2 26
3 49 12 57 17 18 73 18 116 0z"/>
<path d="M2976 3482 c-24 -5 -21 -52 4 -52 31 0 37 -27 32 -142 -4 -94 -7
-108 -21 -108 -24 0 -29 -7 -23 -35 4 -25 5 -25 114 -25 l109 0 -3 27 c-2 18
-10 29 -23 32 -31 5 -35 19 -35 119 0 101 10 132 40 132 15 0 20 7 20 24 0 24
-2 25 -99 28 -54 2 -106 2 -115 0z"/>
<path d="M3465 3480 c-172 -35 -253 -165 -170 -275 43 -57 97 -77 222 -83 61
-2 132 -1 157 2 45 7 46 8 46 43 0 32 -2 35 -22 29 -50 -14 -155 -18 -195 -7
-129 35 -149 157 -34 213 48 23 147 30 214 14 l37 -8 0 35 c0 32 -3 35 -37 41
-51 8 -168 6 -218 -4z"/>
<path d="M1442 3346 c3 -133 3 -135 32 -165 48 -50 98 -63 222 -59 120 4 170
20 203 67 22 30 24 47 22 189 l-1 102 -60 0 -60 0 0 -121 c0 -66 -4 -129 -10
-139 -11 -21 -60 -40 -105 -40 -81 0 -126 44 -117 113 2 21 1 71 -3 112 l-7
75 -60 0 -60 0 4 -134z"/>
<path d="M2590 3300 l0 -180 176 0 175 0 -3 28 -3 27 -110 5 -110 5 -3 148 -3
147 -59 0 -60 0 0 -180z"/>
<path d="M3960 3471 c0 -7 -32 -67 -60 -111 -39 -61 -130 -222 -130 -230 0 -6
27 -10 60 -10 59 0 60 1 85 40 l25 40 105 0 105 0 25 -40 c25 -40 25 -40 90
-40 36 0 65 4 65 9 0 4 -8 19 -18 32 -16 20 -89 147 -115 199 -4 8 -18 33 -32
55 -14 22 -28 46 -31 53 -7 14 -174 18 -174 3z m126 -131 c18 -34 31 -67 28
-71 -7 -12 -125 -11 -144 1 -8 5 -10 10 -5 10 6 0 24 30 40 65 17 36 34 63 39
62 5 -2 24 -32 42 -67z"/>
<path d="M4362 3453 c3 -27 5 -28 83 -33 l80 -5 3 -147 3 -148 59 0 59 0 3
148 3 147 80 5 c78 5 80 6 83 33 l3 27 -231 0 -231 0 3 -27z"/>
<path d="M4910 3300 l0 -180 175 0 175 0 0 30 0 29 -112 3 -113 3 0 40 0 40
75 3 c110 3 122 7 118 40 l-3 27 -98 3 -98 3 3 37 3 37 100 5 100 5 3 28 3 27
-165 0 -166 0 0 -180z"/>
<path d="M2360 2904 c-44 -18 -73 -60 -106 -154 -42 -120 -94 -310 -94 -347 0
-20 -5 -23 -39 -23 -35 0 -44 6 -85 54 -25 29 -46 56 -46 58 0 3 -18 33 -40
66 l-40 60 -58 -24 c-31 -13 -62 -24 -68 -24 -6 0 -31 -9 -55 -19 -24 -11 -80
-29 -124 -41 -44 -12 -85 -26 -92 -32 -22 -18 -14 -44 20 -60 l32 -16 -37 -16
c-46 -19 -47 -33 -9 -70 15 -15 37 -45 47 -67 11 -21 22 -39 27 -39 4 0 7 -6
7 -12 0 -24 17 -39 51 -48 19 -5 67 -18 107 -28 40 -11 73 -20 75 -20 1 0 23
-6 50 -12 45 -12 47 -14 46 -49 -1 -61 -24 -235 -32 -248 -6 -10 -76 -13 -291
-13 -245 0 -285 2 -297 16 -8 9 -21 13 -35 10 -28 -7 -44 17 -44 68 0 28 8 43
37 69 39 36 32 61 -7 27 -31 -27 -47 -25 -54 7 -9 34 4 45 77 67 31 10 57 20
57 22 0 4 -37 48 -70 84 -8 9 -33 38 -55 65 -22 28 -53 63 -68 80 -26 26 -28
34 -22 77 7 52 4 55 -42 37 -15 -6 -62 -17 -103 -24 -41 -8 -106 -21 -145 -29
-38 -9 -140 -27 -225 -41 -221 -37 -206 -32 -185 -55 10 -11 14 -20 10 -20 -4
0 -1 -8 7 -17 8 -10 28 -43 44 -73 15 -30 36 -67 46 -81 20 -30 11 -45 -32
-51 -35 -4 -39 -47 -7 -84 18 -21 36 -29 72 -33 28 -4 51 -12 56 -21 16 -30
39 -86 48 -117 9 -30 8 -32 -22 -39 -18 -4 -48 -13 -67 -22 -57 -24 -74 -30
-100 -37 -14 -3 -103 -31 -197 -62 l-173 -55 93 -87 c50 -48 116 -109 144
-135 l53 -49 45 13 c38 11 53 10 85 0 34 -11 40 -18 40 -40 0 -42 -24 -57 -63
-41 -58 24 -91 25 -112 1 -19 -21 -19 -22 -1 -36 10 -7 23 -15 27 -16 5 -2 10
-13 12 -26 5 -33 24 -42 73 -35 29 4 49 1 65 -10 22 -15 30 -15 84 -1 143 36
132 31 127 63 -3 22 1 32 17 40 29 16 64 -2 52 -27 -5 -9 -21 -57 -36 -107
-15 -49 -32 -105 -38 -124 -9 -27 -9 -35 1 -38 6 -3 12 -20 12 -39 0 -28 4
-34 22 -34 12 0 29 7 39 16 15 14 20 14 46 0 24 -12 75 -15 264 -15 264 0 326
8 335 44 3 13 3 29 -1 34 -9 16 -71 13 -160 -5 -56 -12 -80 -13 -88 -5 -8 8
-5 15 11 27 12 8 22 24 22 36 0 22 17 90 30 123 5 11 11 36 13 55 7 47 28 123
38 134 4 5 30 11 56 13 57 6 79 22 65 49 -33 64 -132 348 -123 357 5 5 136 4
292 -2 411 -16 361 -22 450 57 41 37 95 83 119 102 25 19 54 44 65 55 12 11
47 42 78 69 56 48 64 66 26 66 -10 0 -19 4 -19 9 0 11 69 130 85 147 5 6 21
27 35 47 14 20 34 40 45 43 11 4 22 10 25 13 3 4 28 21 55 39 28 17 55 35 60
39 30 24 109 72 162 99 66 33 47 83 -34 90 -58 5 -123 -38 -238 -158 -57 -59
-110 -108 -117 -108 -22 0 -44 19 -32 28 6 4 41 43 79 87 99 117 234 246 292
280 68 40 76 67 26 94 -64 33 -176 -1 -248 -76 -78 -81 -181 -232 -222 -325
-14 -31 -56 -46 -78 -28 -12 10 -11 19 9 63 75 165 138 282 179 328 15 17 27
35 27 40 0 5 16 24 37 42 43 40 40 60 -13 82 -45 19 -98 19 -144 -1z m-424
-467 l34 -79 -37 -56 c-21 -30 -47 -57 -58 -59 -89 -16 -151 -23 -162 -19 -9
4 -13 25 -13 62 0 40 -5 63 -17 76 -15 17 -15 20 -3 28 8 6 23 10 33 10 33 0
96 39 128 80 18 23 39 39 47 38 7 -2 29 -38 48 -81z m-849 -259 c28 -27 33
-39 33 -79 0 -33 -5 -49 -16 -53 -28 -11 -58 -6 -89 14 l-29 19 -11 -32 c-9
-29 -14 -32 -58 -35 -43 -3 -51 0 -82 31 -27 27 -35 43 -35 70 0 59 66 88 118
51 23 -16 42 -12 42 10 0 22 23 36 59 36 26 0 44 -8 68 -32z m-452 -595 c13
-31 42 -182 37 -188 -12 -11 -43 -3 -167 45 -71 28 -135 50 -141 50 -7 0 -22
8 -35 19 l-23 18 35 11 c19 7 54 16 79 21 25 6 72 16 105 24 83 20 102 20 110
0z m510 -353 c6 -10 -14 -91 -35 -145 -4 -11 -18 -54 -30 -95 -25 -83 -47
-110 -91 -110 -22 0 -29 5 -29 20 0 11 6 20 14 20 7 0 16 12 19 28 3 15 13 56
22 92 9 36 19 82 22 103 3 20 9 40 14 43 5 3 9 14 9 24 0 26 71 42 85 20z
m-525 -40 c0 -5 -4 -10 -10 -10 -5 0 -10 5 -10 10 0 6 5 10 10 10 6 0 10 -4
10 -10z m130 -28 c0 -5 -7 -9 -15 -9 -8 0 -15 4 -15 9 0 4 7 8 15 8 8 0 15 -4
15 -8z"/>
<path d="M1000 2147 c0 -40 44 -65 57 -32 6 18 -23 55 -44 55 -7 0 -13 -10
-13 -23z"/>
<path d="M853 2124 c-8 -22 9 -48 36 -52 29 -5 38 24 16 48 -22 24 -43 26 -52
4z"/>
<path d="M3553 2904 c-43 -21 -42 -48 1 -94 18 -19 53 -64 77 -100 58 -85 183
-336 174 -350 -3 -5 -17 -10 -29 -10 -19 0 -34 18 -76 93 -95 166 -175 263
-259 318 -38 25 -55 29 -111 29 -71 0 -110 -18 -110 -50 0 -12 21 -33 57 -57
32 -21 91 -69 132 -108 83 -79 231 -248 231 -263 0 -33 -30 -13 -111 72 -113
119 -195 176 -253 176 -80 0 -115 -55 -55 -88 32 -18 172 -107 275 -175 48
-31 74 -60 122 -131 79 -118 81 -123 46 -136 -33 -13 -55 10 194 -203 l193
-166 117 5 c64 3 209 9 322 14 113 4 209 5 213 1 4 -5 2 -26 -6 -47 -87 -237
-110 -303 -114 -325 -5 -25 -3 -26 52 -32 60 -6 85 -19 85 -46 0 -43 72 -307
87 -319 27 -20 3 -34 -37 -22 -121 35 -210 32 -210 -7 0 -53 109 -81 254 -65
63 7 106 7 117 1 29 -15 172 -11 229 8 49 16 53 16 62 0 19 -35 66 -14 59 26
-1 10 5 24 15 32 17 12 16 17 -10 101 -15 49 -31 96 -35 104 -5 9 -12 35 -16
59 -7 41 -6 43 16 39 20 -2 24 -9 23 -35 -2 -31 1 -33 50 -47 136 -38 150 -40
182 -23 16 8 42 13 56 10 47 -9 76 4 80 35 2 19 9 28 25 30 28 4 35 25 17 51
-18 26 -75 28 -119 5 -28 -14 -31 -14 -48 7 -36 45 7 72 103 64 l65 -5 65 62
c227 216 213 201 194 215 -10 7 -23 13 -29 13 -16 0 -405 128 -442 145 -17 8
-38 15 -46 15 -34 0 -31 21 22 130 15 31 22 36 65 41 103 11 136 129 37 129
-12 0 -21 3 -21 6 0 3 29 56 65 119 36 62 65 117 65 122 0 5 -51 17 -112 27
-62 10 -214 38 -338 63 -124 25 -237 48 -251 50 -26 5 -26 4 -21 -47 3 -37 1
-54 -10 -63 -8 -7 -49 -53 -90 -102 -42 -50 -83 -97 -92 -104 -28 -24 -17 -39
47 -63 57 -22 62 -27 60 -52 -3 -39 -8 -41 -39 -17 -42 33 -50 12 -10 -28 40
-41 40 -41 25 -93 -8 -32 -14 -38 -37 -38 -16 0 -33 -5 -39 -11 -13 -13 -563
-13 -574 -1 -10 11 -36 260 -29 272 3 5 26 14 51 19 54 12 193 48 234 61 23 8
38 24 58 65 14 30 42 72 62 93 19 22 35 44 35 50 0 7 -14 19 -31 27 l-30 16
25 20 c49 38 26 64 -84 93 -36 9 -120 38 -188 63 -68 25 -124 44 -126 42 -2
-2 -29 -42 -59 -89 -75 -114 -111 -150 -147 -150 -26 0 -29 4 -35 43 -18 113
-78 310 -122 404 -20 41 -34 57 -67 73 -51 24 -128 26 -173 4z m688 -438 c41
-41 66 -58 102 -66 26 -7 47 -15 47 -18 0 -3 -7 -14 -16 -24 -11 -11 -17 -37
-18 -73 0 -64 1 -63 -115 -44 -66 11 -68 13 -96 58 -15 25 -27 55 -27 66 0 19
58 155 66 155 1 0 27 -24 57 -54z m1364 -901 c141 -33 149 -35 139 -45 -19
-18 -326 -132 -334 -124 -5 5 0 46 10 92 24 111 25 113 52 107 13 -3 73 -16
133 -30z m-609 -343 c9 -6 54 -169 69 -249 2 -13 12 -36 21 -53 23 -38 12 -48
-29 -28 -29 14 -36 26 -56 90 -12 40 -33 107 -47 149 -13 42 -24 81 -24 88 0
12 49 15 66 3z"/>
<path d="M2820 1640 c-56 -5 -96 -26 -330 -173 l-85 -54 -3 -188 c-2 -130 1
-192 9 -201 8 -10 35 -14 86 -14 60 0 80 -4 100 -20 19 -14 41 -20 79 -20 40
0 54 -4 54 -14 0 -8 10 -22 22 -30 19 -14 70 -16 358 -16 296 0 338 2 359 17
l24 16 -5 290 c-4 219 -8 291 -18 297 -7 4 -34 11 -61 14 -41 6 -49 10 -49 27
0 15 -5 19 -16 15 -8 -3 -22 1 -30 9 -15 14 -66 21 -126 16 -16 -1 -28 3 -28
8 0 6 -11 11 -24 11 -14 0 -27 4 -30 8 -6 9 -203 11 -286 2z m147 -34 c-1 -4
-20 -14 -42 -22 -22 -7 -44 -19 -50 -26 -15 -20 -62 -48 -80 -48 -19 0 -22 96
-2 103 22 8 177 2 174 -7z m238 -35 c5 0 4 -6 -2 -12 -6 -6 -34 -11 -63 -11
-34 0 -56 -6 -67 -17 -27 -27 -67 -51 -85 -51 -14 0 -18 9 -18 43 0 24 3 46 6
49 4 5 197 4 229 -1z m100 -12 c10 -10 -4 -13 -45 -9 -32 3 -42 9 -34 21 7 11
63 2 79 -12z m147 -53 c4 -6 8 -133 8 -282 0 -218 -3 -274 -14 -283 -9 -8
-108 -11 -342 -9 l-329 3 -5 178 c-3 106 -1 182 5 188 5 5 76 9 159 9 187 0
186 -1 186 115 0 45 2 84 5 87 11 10 320 5 327 -6z m-842 -116 c0 -5 -4 -10
-10 -10 -6 0 -11 -69 -12 -172 l-3 -173 -75 0 -75 0 -3 170 c-1 93 0 175 2
182 7 16 176 19 176 3z m175 -29 c3 -5 -8 -19 -25 -31 l-30 -21 0 -160 0 -160
-52 3 -53 3 -3 179 c-2 137 1 181 10 188 18 11 146 10 153 -1z"/>
<path d="M1437 583 c-4 -3 -7 -60 -7 -125 l0 -118 34 0 c34 0 35 1 38 43 3 39
5 42 33 45 94 8 119 15 146 42 45 44 23 85 -57 108 -44 13 -176 16 -187 5z
m157 -43 c29 -11 34 -41 12 -59 -8 -7 -34 -11 -58 -9 -36 3 -44 7 -46 26 -2
13 -1 30 2 38 6 16 53 19 90 4z"/>
<path d="M1874 575 c-12 -8 -33 -38 -48 -67 -15 -29 -40 -75 -56 -103 -16 -27
-30 -53 -30 -57 0 -5 18 -8 40 -8 27 0 40 4 40 13 0 31 35 47 104 47 64 0 68
-1 84 -30 15 -26 23 -30 61 -30 41 0 43 1 30 18 -8 9 -21 31 -29 47 -8 17 -17
32 -20 35 -3 3 -18 30 -34 60 -16 30 -36 63 -44 73 -18 21 -70 22 -98 2z m75
-81 c12 -19 21 -39 21 -45 0 -5 -22 -9 -50 -9 -27 0 -50 4 -50 9 0 22 32 81
44 81 8 0 23 -16 35 -36z"/>
<path d="M2275 574 c-27 -8 -61 -22 -75 -32 -70 -52 -60 -136 22 -178 40 -21
157 -29 217 -14 l51 12 0 59 0 59 -81 0 c-71 0 -80 -2 -77 -17 2 -13 14 -19
41 -21 35 -3 38 -6 35 -30 -3 -24 -8 -27 -47 -30 -58 -4 -86 3 -111 30 -40 44
-16 101 55 128 17 6 59 10 94 8 75 -4 95 15 34 31 -48 14 -95 12 -158 -5z"/>
<path d="M2593 583 c-10 -3 -13 -38 -13 -124 l0 -119 110 0 c103 0 110 1 110
20 0 17 -8 19 -72 22 -71 3 -73 4 -76 30 -3 27 -2 27 60 30 50 2 63 7 66 20 3
14 -7 17 -60 20 -58 3 -63 5 -66 27 -5 32 12 41 79 41 60 0 71 4 62 26 -4 11
-27 14 -97 13 -50 0 -97 -3 -103 -6z"/>
<path d="M3024 583 c-12 -8 -184 -268 -184 -278 0 -3 12 -5 28 -5 24 0 37 15
114 133 48 72 89 137 90 142 4 12 -33 18 -48 8z"/>
<path d="M3134 577 c-2 -7 -3 -62 -2 -123 l3 -109 37 -3 c37 -3 37 -3 40 40
l3 43 69 7 c82 8 120 31 124 74 4 36 -17 56 -74 72 -58 17 -193 16 -200 -1z
m188 -45 c6 -6 8 -22 4 -37 -6 -24 -10 -26 -59 -23 -49 3 -52 5 -55 32 -2 16
2 33 10 38 16 11 86 4 100 -10z"/>
<path d="M3578 574 c-128 -40 -148 -152 -37 -209 75 -39 204 -26 265 27 29 25
34 37 34 72 0 55 -37 92 -111 111 -65 18 -89 17 -151 -1z m137 -40 c53 -25 59
-96 11 -136 -33 -28 -116 -24 -150 7 -26 24 -36 76 -18 100 31 43 101 56 157
29z"/>
<path d="M3971 574 c-24 -7 -49 -19 -57 -25 -37 -31 2 -79 85 -103 67 -20 86
-33 70 -52 -13 -16 -105 -19 -143 -4 -23 8 -26 7 -26 -10 0 -29 44 -43 120
-37 67 4 124 26 133 50 11 28 -18 62 -63 76 -70 21 -110 40 -110 50 0 22 44
33 102 27 52 -5 59 -4 56 11 -6 32 -91 41 -167 17z"/>
<path d="M4207 583 c-20 -19 -5 -33 37 -33 76 0 76 0 76 -112 l0 -99 33 3 32
3 5 100 5 100 45 3 c64 4 75 9 60 27 -10 12 -40 15 -150 15 -75 0 -140 -3
-143 -7z"/>
</g>
</svg>
