<svg version="1.0" xmlns="http://www.w3.org/2000/svg"
 width="512.000000pt" height="512.000000pt" viewBox="0 0 512.000000 512.000000"
 preserveAspectRatio="xMidYMid meet">

<g transform="translate(0.000000,512.000000) scale(0.100000,-0.100000)"
fill="#000000" stroke="none">
<path d="M1864 4319 c-10 -17 13 -36 27 -22 12 12 4 33 -11 33 -5 0 -12 -5
-16 -11z"/>
<path d="M735 4161 c-7 -12 12 -24 25 -16 11 7 4 25 -10 25 -5 0 -11 -4 -15
-9z"/>
<path d="M4150 3709 c0 -401 -10 -1275 -15 -1324 -13 -126 -13 -132 -5 -95 l7
35 2 -42 c0 -24 -3 -43 -9 -43 -5 0 -10 -9 -10 -19 0 -11 -4 -23 -10 -26 -5
-3 -10 -17 -10 -31 0 -14 4 -22 10 -19 6 4 10 -6 9 -22 0 -15 -3 -23 -5 -16
-3 7 -12 9 -20 6 -17 -6 -19 -84 -2 -101 9 -9 9 -12 0 -12 -7 0 -12 -14 -13
-32 0 -28 -2 -30 -9 -13 -6 15 -9 6 -11 -35 l-2 -55 -7 55 c-4 30 -7 -110 -8
-312 -1 -232 -6 -369 -12 -373 -7 -4 -10 435 -10 1310 0 1458 4 1372 -64 1400
-31 13 -225 15 -1408 15 -1287 0 -1375 -1 -1408 -18 -71 -35 -67 16 -73 -999
-4 -780 -7 -915 -20 -927 -8 -8 -17 -33 -21 -55 -3 -23 -10 -41 -15 -41 -6 0
-12 -10 -14 -22 -2 -13 -3 0 -1 27 2 39 1 43 -5 20 l-8 -30 -5 30 c-3 18 -5 7
-4 -25 0 -30 -4 -211 -8 -402 l-9 -348 44 23 c64 32 204 32 271 -1 67 -34 136
-107 169 -179 29 -62 29 -62 59 -51 17 5 59 8 94 6 85 -5 138 -41 175 -117
l26 -54 115 3 c116 2 336 2 465 -1 39 0 105 1 148 2 42 2 77 1 77 -3 0 -4 9
-6 19 -5 11 0 18 4 16 7 -7 12 469 8 484 -4 12 -8 13 -8 7 2 -4 7 -1 12 8 12
9 0 16 -5 16 -11 0 -8 5 -7 16 2 13 10 17 10 24 0 5 -8 16 -11 30 -6 31 10 70
13 66 6 -4 -5 151 -7 202 -2 6 1 12 9 12 19 0 28 37 81 72 102 20 12 51 20 79
20 42 0 46 3 62 35 9 20 17 37 17 38 0 1 -152 1 -337 -1 -220 -2 -333 -6 -323
-12 12 -8 11 -10 -7 -10 -13 0 -23 5 -23 10 0 6 -37 9 -92 9 -68 -1 -83 -4
-58 -9 19 -4 -192 -8 -470 -8 -290 0 -496 3 -485 8 12 5 -69 9 -205 10 -226 1
-307 10 -222 23 23 4 535 7 1138 7 l1095 0 41 34 c63 54 104 70 193 74 58 3
91 -1 118 -13 54 -22 127 -92 149 -142 10 -24 24 -43 31 -43 39 0 229 157 258
213 l12 22 -24 -21 c-14 -13 -32 -20 -44 -17 -11 2 -36 5 -55 7 -19 1 -41 5
-48 9 -6 5 -16 5 -22 2 -16 -10 -12 4 8 24 44 46 106 81 143 81 21 0 41 5 44
10 3 5 -3 10 -14 10 -32 0 -25 12 24 45 25 17 45 36 45 43 0 6 -2 12 -5 12 -8
0 -139 -93 -147 -104 -12 -17 -9 14 6 72 22 80 -4 61 -34 -26 -14 -39 -29 -75
-33 -79 -12 -12 -67 -10 -65 2 4 25 -16 85 -27 85 -7 0 -34 -9 -60 -20 -62
-26 -76 -25 -38 3 53 39 123 107 159 154 38 50 71 109 56 99 -5 -3 -25 0 -43
8 -19 7 -39 12 -45 9 -6 -2 -17 3 -24 12 -19 23 17 69 56 73 36 4 57 22 26 22
-31 0 -27 9 23 60 25 25 45 52 45 60 0 8 -24 -9 -53 -38 -29 -29 -56 -52 -60
-52 -4 0 -7 18 -7 40 0 54 -14 50 -28 -7 l-10 -48 1 52 2 51 -39 -23 c-22 -13
-48 -31 -58 -39 -10 -9 -20 -16 -23 -16 -3 0 -5 99 -5 220 0 193 2 220 16 220
8 0 50 14 92 32 110 45 212 153 212 222 0 24 -29 46 -61 46 -40 0 -144 -51
-204 -101 l-50 -42 -3 40 c-5 60 68 179 129 210 24 12 40 23 34 23 -5 0 17 25
50 55 32 30 56 57 52 61 -6 6 -48 -25 -127 -95 -42 -37 -52 -39 -45 -8 3 12
12 55 20 95 8 40 25 91 37 115 16 31 22 61 22 112 1 64 -1 70 -20 73 -49 7
-90 -128 -64 -207 11 -33 9 -51 -9 -132 -12 -52 -34 -119 -49 -149 l-27 -55
-5 757 c-3 416 -8 760 -12 764 -5 4 -8 -125 -8 -287z m-2672 82 c-5 -24 -38
-27 -38 -3 0 10 3 21 6 25 11 11 35 -5 32 -22z m1276 10 c10 -16 -5 -41 -25
-41 -14 0 -19 7 -19 25 0 18 5 25 19 25 11 0 22 -4 25 -9z m-486 -141 c5 -169
-15 -216 -96 -227 -66 -9 -144 39 -113 70 9 9 19 8 42 -6 17 -9 40 -17 52 -17
54 1 67 34 67 180 0 120 0 121 23 118 21 -3 22 -7 25 -118z m140 97 c2 -12 -3
-17 -17 -17 -12 0 -21 6 -21 13 0 31 32 34 38 4z m592 -103 c0 -125 0 -126
-29 -155 -35 -34 -72 -37 -118 -9 -32 19 -51 59 -38 79 11 19 31 12 53 -19 26
-34 57 -39 72 -11 5 11 10 62 10 115 0 108 5 126 31 126 18 0 19 -9 19 -126z
m795 10 c0 -124 -9 -147 -66 -159 -57 -13 -134 50 -91 74 11 6 25 2 45 -13
l29 -21 19 24 c16 19 19 40 19 118 0 92 1 94 23 91 21 -3 22 -6 22 -114z
m-355 86 c0 -15 -7 -20 -25 -20 -18 0 -25 5 -25 20 0 15 7 20 25 20 18 0 25
-5 25 -20z m170 10 c13 -8 13 -11 -2 -27 -21 -20 -45 -5 -35 21 7 18 16 20 37
6z m-1626 -16 c21 -20 20 -63 -1 -86 -23 -26 -78 -24 -97 4 -32 46 -6 98 49
98 18 0 41 -7 49 -16z m-181 -58 c9 -23 -2 -26 -85 -26 -58 0 -78 3 -78 13 0
23 11 27 86 27 52 0 73 -4 77 -14z m-533 -11 c0 -8 9 -15 20 -15 11 0 20 -7
20 -15 0 -8 -9 -15 -20 -15 -13 0 -20 -7 -20 -20 0 -11 -7 -20 -15 -20 -8 0
-15 9 -15 20 0 13 -7 20 -20 20 -11 0 -20 5 -20 11 0 6 9 13 20 16 11 3 20 12
20 19 0 8 7 14 15 14 8 0 15 -7 15 -15z m1989 -4 c8 -5 11 -16 8 -25 -5 -13
-21 -16 -76 -16 -72 0 -92 10 -71 35 14 17 115 21 139 6z m-570 -55 c12 -14
15 -7 -101 -216 -48 -87 -69 -116 -86 -118 -35 -5 -28 18 53 161 l74 132 -117
3 c-119 3 -139 9 -129 36 5 14 29 16 150 16 109 0 147 -3 156 -14z m828 -2 c8
-21 -13 -42 -28 -27 -13 13 -5 43 11 43 6 0 13 -7 17 -16z m-2033 -9 c3 -8 12
-15 20 -15 7 0 16 7 20 15 6 16 41 21 50 6 3 -5 -3 -20 -15 -35 l-20 -26 21
-22 c35 -38 7 -65 -29 -29 -26 26 -29 26 -57 0 -23 -22 -44 -19 -44 6 0 8 10
21 22 29 20 15 21 16 5 34 -9 10 -17 26 -17 35 0 21 36 23 44 2z m1781 -70 c0
-18 -8 -20 -69 -23 -72 -3 -93 5 -82 33 5 13 19 15 78 13 65 -3 73 -5 73 -23z
m-1416 -40 c36 -18 55 -62 43 -96 -6 -13 -40 -59 -76 -101 l-66 -77 103 -3
c94 -3 102 -4 102 -23 0 -19 -7 -20 -135 -20 -132 0 -135 0 -138 23 -3 16 19
47 77 114 87 100 100 133 55 144 -35 9 -72 -10 -80 -41 -4 -16 -13 -25 -25
-25 -28 0 -33 23 -15 59 29 55 98 76 155 46z m-481 -102 l3 -93 69 0 c71 0 85
-6 74 -34 -5 -12 -21 -16 -75 -16 l-68 0 -3 -72 c-3 -67 -5 -73 -25 -76 -22
-3 -23 0 -23 72 l0 75 -62 3 c-55 3 -63 5 -63 23 0 18 8 20 63 23 l62 3 0 95
c0 93 1 95 23 92 21 -3 22 -8 25 -95z m2527 32 c0 -22 -31 -33 -47 -17 -17 17
-1 44 24 40 15 -2 23 -10 23 -23z m-460 -40 c0 -19 -8 -20 -129 -23 -131 -3
-154 3 -143 33 6 13 25 15 139 13 125 -3 133 -4 133 -23z m302 -71 c2 -6 -12
-21 -32 -32 -30 -18 -35 -27 -35 -57 0 -38 -22 -49 -39 -17 -23 44 29 126 78
120 13 -2 26 -8 28 -14z m-1416 -20 c61 -31 61 -45 -6 -138 -52 -72 -46 -135
22 -198 114 -107 322 -107 429 1 67 67 68 127 4 213 -22 29 -40 56 -40 59 0
55 124 102 208 79 23 -6 55 -22 72 -36 38 -32 39 -70 5 -123 -33 -53 -40 -86
-25 -120 24 -58 49 -59 283 -13 116 23 213 39 216 37 2 -3 -1 -58 -7 -123 -6
-64 -15 -185 -18 -267 -8 -189 -6 -193 92 -141 73 39 101 40 142 3 77 -70 28
-217 -73 -217 -14 0 -47 12 -75 26 -39 21 -53 23 -69 14 -19 -10 -21 -20 -21
-103 0 -100 -7 -140 -22 -131 -5 3 -9 -2 -8 -12 4 -36 0 -42 -30 -49 -24 -5
-30 -12 -31 -33 0 -23 -2 -24 -8 -8 -7 18 -8 18 -14 3 -3 -9 -17 -17 -29 -18
-22 0 -22 -1 -3 -9 18 -8 17 -9 -7 -9 -14 -1 -62 6 -105 14 -119 23 -179 20
-208 -10 -33 -32 -33 -93 0 -160 31 -62 31 -86 3 -111 -56 -48 -106 -56 -191
-30 -26 8 -47 12 -47 9 0 -3 -7 0 -15 7 -22 18 -19 32 21 83 76 98 74 167 -6
248 -110 110 -283 117 -414 18 -57 -43 -80 -93 -74 -153 5 -44 14 -61 59 -118
31 -38 20 -70 -32 -94 -71 -31 -196 -13 -227 34 -14 22 -13 28 16 88 40 82 43
139 7 178 -13 14 -34 26 -47 26 -64 0 -383 -72 -402 -91 -24 -23 -37 -9 -32
34 3 23 11 113 16 200 14 203 1 231 -77 171 -77 -59 -168 -31 -189 56 -14 60
-2 109 36 143 41 36 102 37 150 2 40 -30 66 -32 79 -6 10 17 4 179 -15 449 -3
50 -2 92 2 92 5 0 98 -18 208 -40 109 -22 211 -40 226 -40 34 0 70 40 70 79 0
14 -14 53 -30 86 -16 33 -30 66 -30 72 0 23 55 74 95 88 45 16 123 11 166 -11z
m1507 14 c20 -20 15 -101 -8 -126 -38 -41 -103 -43 -108 -3 -3 21 -1 22 26 16
21 -4 34 -1 46 10 18 19 21 66 5 82 -13 13 -4 33 15 33 6 0 17 -5 24 -12z
m-1180 -176 c3 -88 2 -93 -23 -118 -22 -22 -33 -25 -63 -20 -40 6 -74 38 -65
61 7 19 27 19 43 0 16 -20 46 -19 54 1 3 9 6 44 6 79 0 75 7 97 29 93 13 -3
17 -20 19 -96z m777 63 c0 -19 -8 -20 -124 -23 -127 -3 -154 5 -129 35 8 10
41 13 132 11 113 -3 121 -4 121 -23z m412 -91 c8 -21 -13 -42 -28 -27 -13 13
-5 43 11 43 6 0 13 -7 17 -16z m-2344 -48 c8 -20 -20 -43 -35 -28 -14 14 -3
42 16 42 7 0 16 -6 19 -14z m-213 -31 c19 -23 -3 -65 -34 -65 -35 0 -52 24
-38 55 13 29 52 34 72 10z m2522 -55 c27 -27 29 -35 24 -73 -8 -53 -8 -64 0
-108 12 -71 -68 -125 -141 -95 -36 15 -60 49 -51 72 8 22 32 17 50 -11 19 -29
51 -32 78 -8 32 29 19 66 -26 74 -32 6 -30 29 3 40 35 12 47 39 31 69 -16 30
-63 27 -88 -7 -13 -17 -25 -24 -36 -20 -24 10 -19 35 13 68 42 41 101 41 143
-1z m-2293 -139 c8 -5 11 -16 8 -25 -5 -14 -28 -16 -161 -16 -156 0 -180 6
-156 35 10 12 42 15 154 15 77 0 147 -4 155 -9z m-221 -193 c17 -17 15 -63 -2
-77 -46 -38 -111 25 -71 69 20 22 55 26 73 8z m2611 -32 c9 -11 10 -20 1 -36
-13 -25 -47 -24 -63 2 -22 34 36 66 62 34z m1 -216 c0 -21 -24 -28 -35 -10 -8
14 3 30 21 30 8 0 14 -9 14 -20z m-2625 -115 c0 -22 -31 -33 -47 -17 -17 17
-1 44 24 40 15 -2 23 -10 23 -23z m109 -111 c13 -5 16 -25 16 -121 0 -136 -13
-176 -65 -193 -58 -19 -138 31 -121 76 8 21 26 17 48 -11 23 -29 44 -32 70 -8
15 14 18 32 18 133 0 128 2 136 34 124z m2452 -10 c47 -22 67 -64 67 -139 0
-102 -40 -162 -112 -172 -44 -6 -91 16 -91 42 0 18 20 19 55 3 58 -26 105 34
105 137 0 42 -5 60 -21 76 -29 29 -79 23 -99 -13 -17 -32 -8 -56 28 -73 45
-20 18 -49 -31 -32 -33 11 -47 34 -47 79 0 42 23 76 64 94 40 17 42 17 82 -2z
m-206 -28 c0 -8 -5 -18 -11 -22 -14 -8 -33 11 -25 25 10 16 36 13 36 -3z
m-2100 -26 c0 -21 -24 -28 -35 -10 -8 14 3 30 21 30 8 0 14 -9 14 -20z m2571
-47 c-9 -16 -10 -14 -11 12 0 21 3 26 11 18 8 -8 8 -16 0 -30z m16 -45 c-3 -8
-6 -5 -6 6 -1 11 2 17 5 13 3 -3 4 -12 1 -19z m-1522 -138 c0 -116 -2 -135
-16 -138 -26 -5 -31 25 -23 156 6 105 9 122 23 120 14 -3 16 -22 16 -138z
m1502 88 c-3 -8 -6 -5 -6 6 -1 11 2 17 5 13 3 -3 4 -12 1 -19z m-837 -159 c0
-12 -29 -24 -37 -16 -3 4 -3 13 0 21 6 16 37 11 37 -5z m-1350 -20 c0 -20 -24
-26 -35 -9 -8 13 14 42 26 34 5 -3 9 -14 9 -25z m-250 -4 c0 -8 -13 -21 -30
-30 -23 -12 -31 -24 -36 -56 -5 -29 -11 -39 -23 -37 -38 7 -18 98 28 123 34
19 61 19 61 0z m100 -24 c31 -59 -12 -151 -70 -151 -42 0 -60 10 -60 32 0 17
5 19 39 13 33 -5 41 -3 50 14 14 26 14 64 0 78 -6 6 -8 16 -5 22 11 17 34 13
46 -8z m2122 -38 c10 -9 18 -23 18 -31 0 -23 -30 -52 -55 -52 -43 0 -60 47
-28 82 20 22 41 23 65 1z m-277 -18 c0 -19 -8 -20 -209 -23 -124 -1 -214 2
-219 7 -5 5 -7 17 -4 26 6 13 33 15 219 13 205 -3 213 -4 213 -23z m-1640 -40
c0 -22 -31 -33 -47 -17 -17 17 -1 44 24 40 15 -2 23 -10 23 -23z m-528 -11 c9
-25 -16 -34 -87 -32 -59 3 -65 5 -68 26 -3 21 0 22 73 22 60 0 77 -3 82 -16z
m2331 -84 c47 -29 58 -64 38 -123 -15 -43 -15 -49 -1 -69 44 -63 -6 -148 -88
-148 -50 0 -97 29 -97 60 0 31 19 33 51 6 36 -30 47 -32 77 -10 39 27 27 78
-25 99 -30 13 -33 17 -23 35 6 11 20 20 31 20 31 0 46 43 25 75 -21 32 -50 32
-82 0 -28 -28 -54 -33 -54 -9 0 26 19 53 48 68 37 21 61 19 100 -4z m549 -16
c-3 -3 -12 -4 -19 -1 -8 3 -5 6 6 6 11 1 17 -2 13 -5z m-2887 -19 c21 -25 1
-35 -76 -35 -66 0 -74 2 -74 19 0 25 12 29 81 30 38 1 61 -4 69 -14z m1921
-18 c19 -12 41 -36 48 -52 18 -37 29 -161 13 -151 -6 3 -13 2 -16 -3 -3 -5
-15 -7 -26 -4 -11 3 -27 0 -35 -7 -9 -8 -29 -10 -52 -6 -24 3 -31 2 -19 -3 20
-8 20 -8 0 -13 -10 -2 -52 -6 -93 -7 -40 -1 -84 -7 -97 -13 -17 -8 -31 -7 -53
2 -16 6 -35 9 -42 5 -6 -4 -15 -1 -20 6 -6 10 -9 11 -9 2 0 -7 -7 -13 -15 -13
-8 0 -15 5 -15 10 0 6 -8 10 -18 10 -10 0 -24 6 -31 13 -11 10 -11 8 -2 -10 6
-13 10 -23 9 -24 -17 -4 -58 -3 -58 2 0 4 -15 9 -34 11 -20 2 -32 0 -29 -6 4
-5 -6 -7 -23 -4 -16 3 -38 2 -49 -2 -12 -4 -31 -2 -47 7 -26 12 -28 12 -28 -6
0 -14 -5 -18 -20 -14 -11 3 -20 10 -20 16 0 5 -8 1 -18 -10 -15 -18 -20 -19
-35 -8 -19 13 -6 32 13 20 6 -3 10 -1 10 4 0 6 -8 11 -17 10 -21 -1 -63 -17
-48 -18 6 -1 3 -5 -4 -10 -9 -6 -22 -6 -32 0 -27 14 -39 11 -32 -8 4 -10 2
-14 -5 -9 -6 3 -13 2 -17 -4 -3 -5 -11 -10 -17 -10 -7 0 -7 4 1 13 8 11 6 18
-9 32 -11 10 -20 13 -20 7 0 -7 5 -12 10 -12 6 0 10 -3 10 -7 0 -14 -475 -23
-502 -10 -10 4 -18 4 -18 -1 0 -10 -30 -9 -46 0 -5 4 -16 3 -24 -2 -8 -5 -22
-2 -37 7 -14 10 -23 11 -23 4 0 -21 -20 -11 -35 19 -32 62 -11 174 41 222 56
50 25 48 840 48 l761 0 34 -23z m-1901 -211 c0 -18 -16 -29 -30 -21 -13 8 -1
35 16 35 8 0 14 -6 14 -14z m2855 -6 c3 -6 -1 -7 -9 -4 -18 7 -21 14 -7 14 6
0 13 -4 16 -10z m50 -60 c-3 -5 -11 -10 -16 -10 -6 0 -7 5 -4 10 3 6 11 10 16
10 6 0 7 -4 4 -10z m-2477 -237 c-21 -2 -57 -2 -80 0 -24 2 -7 4 37 4 44 0 63
-2 43 -4z m1385 0 c-13 -2 -33 -2 -45 0 -13 2 -3 4 22 4 25 0 35 -2 23 -4z
m-910 -20 c-7 -2 -19 -2 -25 0 -7 3 -2 5 12 5 14 0 19 -2 13 -5z m234 1 c-3
-3 -12 -4 -19 -1 -8 3 -5 6 6 6 11 1 17 -2 13 -5z"/>
<path d="M1917 3724 c-10 -10 -9 -42 2 -48 18 -11 42 6 39 28 -3 21 -28 33
-41 20z"/>
<path d="M2054 2700 c-33 -13 -49 -62 -32 -97 l13 -28 500 -3 c275 -1 510 0
523 3 34 8 48 47 32 85 -7 18 -23 35 -34 40 -29 11 -975 11 -1002 0z"/>
<path d="M2060 2421 c-52 -14 -59 -95 -11 -121 15 -7 172 -10 516 -8 538 3
516 1 530 60 5 21 1 33 -19 52 l-25 26 -483 -1 c-266 -1 -494 -4 -508 -8z"/>
<path d="M2990 1740 c0 -5 5 -10 10 -10 6 0 10 5 10 10 0 6 -4 10 -10 10 -5 0
-10 -4 -10 -10z"/>
<path d="M1230 3005 c0 -8 7 -15 15 -15 8 0 15 7 15 15 0 8 -7 15 -15 15 -8 0
-15 -7 -15 -15z"/>
<path d="M1237 2613 c-14 -13 -6 -33 13 -33 13 0 20 7 20 20 0 19 -20 27 -33
13z"/>
<path d="M3857 2594 c-8 -8 1 -24 14 -24 5 0 9 7 9 15 0 15 -12 20 -23 9z"/>
<path d="M3837 1694 c-14 -15 -6 -34 14 -34 14 0 19 5 17 17 -3 18 -20 27 -31
17z"/>
<path d="M2210 1310 c0 -5 7 -7 15 -4 8 4 15 8 15 10 0 2 -7 4 -15 4 -8 0 -15
-4 -15 -10z"/>
<path d="M2830 1280 c-9 -6 -10 -10 -3 -10 6 0 15 5 18 10 8 12 4 12 -15 0z"/>
<path d="M4382 3169 c2 -6 8 -10 13 -10 5 0 11 4 13 10 2 6 -4 11 -13 11 -9 0
-15 -5 -13 -11z"/>
<path d="M844 2563 c7 -12 -9 -26 -32 -29 -8 -2 -15 -4 -17 -6 -7 -7 16 -93
31 -117 12 -17 13 -26 5 -34 -9 -9 -30 8 -80 63 -38 41 -72 72 -76 68 -4 -4
31 -49 78 -100 83 -91 86 -96 117 -196 33 -106 34 -131 6 -90 -9 13 -30 42
-47 66 -28 40 -55 50 -42 15 5 -12 -9 -8 -53 15 -78 40 -94 44 -94 28 0 -8 13
-19 28 -25 39 -16 120 -71 104 -71 -7 0 -24 7 -37 16 -14 9 -25 12 -25 6 0 -6
13 -19 29 -28 17 -10 28 -21 25 -25 -6 -10 39 -33 97 -48 36 -10 50 -20 62
-44 l16 -32 0 40 c1 22 -16 92 -36 155 -37 115 -44 176 -28 247 9 41 0 93 -21
119 -8 10 -13 14 -10 7z"/>
<path d="M4070 2165 c0 -8 4 -15 10 -15 5 0 7 7 4 15 -4 8 -8 15 -10 15 -2 0
-4 -7 -4 -15z"/>
<path d="M4060 2003 c0 -21 3 -24 9 -14 5 8 7 20 4 28 -8 21 -13 15 -13 -14z"/>
<path d="M997 2006 c-4 -10 -3 -15 3 -11 6 3 11 -4 11 -17 1 -16 3 -18 6 -6 2
10 0 25 -5 34 -8 15 -10 15 -15 0z"/>
<path d="M600 1944 c0 -4 29 -45 64 -93 77 -104 117 -164 112 -168 -1 -2 -25
4 -52 12 -30 9 -52 11 -58 5 -11 -11 22 -25 93 -41 25 -5 49 -15 53 -22 11
-17 10 -39 -2 -32 -5 3 -10 1 -10 -4 0 -6 -9 -11 -19 -11 -10 0 -21 -7 -25
-15 -3 -8 -13 -15 -21 -15 -9 0 -13 -4 -10 -10 11 -18 -4 -11 -25 12 l-21 23
14 -34 c23 -54 90 -133 165 -194 38 -31 72 -57 76 -57 3 0 6 105 6 233 l0 233
-33 32 c-18 18 -38 32 -44 32 -6 0 -14 6 -17 13 -3 6 -5 -7 -3 -30 1 -24 0
-43 -3 -43 -3 0 -5 -23 -5 -50 0 -28 -3 -50 -7 -50 -5 0 -8 32 -8 70 0 40 -4
70 -10 70 -5 0 -10 -21 -10 -47 l-1 -48 -34 40 c-32 36 -35 46 -35 103 0 72
-17 85 -22 16 l-3 -46 -44 61 c-40 54 -61 74 -61 55z"/>
<path d="M635 1373 c3 -21 9 -49 12 -62 7 -28 9 -29 -85 37 -35 24 -66 41 -70
37 -7 -7 66 -75 81 -75 4 0 7 -5 7 -11 0 -6 -9 -8 -20 -4 -14 4 -20 2 -20 -8
0 -11 16 -17 53 -22 33 -5 66 -18 91 -36 42 -30 74 -69 57 -69 -6 0 -11 5 -11
10 0 6 -4 10 -10 10 -14 0 -12 -27 3 -33 6 -2 -8 -4 -33 -2 -25 1 -50 -2 -56
-6 -5 -5 -22 -2 -37 6 -26 13 -27 13 -16 -7 22 -41 75 -90 148 -140 l75 -50
21 49 c12 26 43 74 69 106 44 55 47 61 44 110 -3 51 -4 52 -53 79 -27 15 -52
25 -55 22 -2 -3 0 -8 6 -12 5 -4 7 -20 3 -37 -5 -22 -7 -25 -9 -10 -3 21 -6
35 -10 48 -1 4 -3 10 -4 15 -3 16 -18 32 -26 27 -4 -3 -4 -24 2 -47 5 -24 11
-60 13 -80 3 -36 3 -37 -18 -26 -12 6 -24 14 -27 17 -3 3 -21 18 -41 33 -31
23 -39 38 -54 98 -18 73 -43 100 -30 33z"/>
<path d="M1998 1003 c17 -2 47 -2 65 0 17 2 3 4 -33 4 -36 0 -50 -2 -32 -4z"/>
<path d="M2128 1003 c7 -3 16 -2 19 1 4 3 -2 6 -13 5 -11 0 -14 -3 -6 -6z"/>
<path d="M2218 1003 c7 -3 16 -2 19 1 4 3 -2 6 -13 5 -11 0 -14 -3 -6 -6z"/>
<path d="M2528 1003 c6 -2 18 -2 25 0 6 3 1 5 -13 5 -14 0 -19 -2 -12 -5z"/>
<path d="M2738 1003 c12 -2 32 -2 45 0 12 2 2 4 -23 4 -25 0 -35 -2 -22 -4z"/>
<path d="M4272 833 c3 -36 5 -38 42 -41 21 -2 43 1 49 7 14 14 -45 71 -73 71
-18 0 -21 -5 -18 -37z"/>
<path d="M700 805 c0 -8 5 -15 10 -15 6 0 10 7 10 15 0 8 -4 15 -10 15 -5 0
-10 -7 -10 -15z"/>
</g>
</svg>
